<svg width="100%" height="100%" viewBox="0 0 880 660" fill="none" xmlns="http://www.w3.org/2000/svg">
  <rect x="32" y="26" width="816" height="606" rx="48" fill="#ffffff" stroke="#dbe9f8" stroke-width="4"/>
  <path d="M120 190C120 145.49 156.49 109 201 109H615C659.51 109 696 145.49 696 190V282C696 326.51 659.51 363 615 363H201C156.49 363 120 326.51 120 282V190Z" fill="#eff6ff"/>
  <path d="M163 240C163 220.91 178.91 205 198 205H618C637.09 205 653 220.91 653 240V254C653 273.09 637.09 289 618 289H198C178.91 289 163 273.09 163 254V240Z" fill="#ffffff"/>
  <path d="M180 226C180 216.06 187.06 209 197 209H613C622.94 209 630 216.06 630 226V244C630 253.94 622.94 261 613 261H197C187.06 261 180 253.94 180 244V226Z" fill="#0b67a6"/>
  <rect x="168" y="384" width="520" height="172" rx="28" fill="#eef5fb"/>
  <path d="M214 428H588" stroke="#0b67a6" stroke-width="16" stroke-linecap="round"/>
  <path d="M214 480H502" stroke="#0b67a6" stroke-width="16" stroke-linecap="round"/>
  <circle cx="372" cy="528" r="26" fill="#0b67a6"/>
  <circle cx="484" cy="524" r="44" fill="#dbe9f8"/>
  <circle cx="514" cy="544" r="16" fill="#0b67a6"/>
  <path d="M536 162C560 146 602 148 620 178C638 208 632 250 604 268C576 286 530 282 510 254C490 226 512 188 536 162Z" fill="#0b67a6" opacity="0.2"/>
  <path d="M124 558C164 588 228 602 282 588C336 574 388 524 432 486C476 448 540 432 598 432C656 432 708 456 748 490" stroke="#0b67a6" stroke-width="18" stroke-linecap="round"/>
  <circle cx="204" cy="118" r="18" fill="#0b67a6"/>
  <circle cx="250" cy="96" r="12" fill="#0b67a6"/>
  <circle cx="590" cy="138" r="14" fill="#0b67a6"/>
  <circle cx="640" cy="108" r="10" fill="#0b67a6"/>
  <path d="M372 356C398 334 452 334 480 356" stroke="#0b67a6" stroke-width="18" stroke-linecap="round"/>
  <path d="M448 354L560 180" stroke="#0b67a6" stroke-width="14" stroke-linecap="round"/>
</svg>
